<svg width="48" height="48" viewBox="0 0 48 48" fill="none" xmlns="http://www.w3.org/2000/svg">
<path d="M43.714 16.9699L37.714 6.96991C37.5367 6.67369 37.2856 6.42857 36.9851 6.25854C36.6847 6.08851 36.3452 5.99939 36 5.99991H26.828L25.414 4.58591C25.2284 4.40002 25.008 4.25255 24.7654 4.15193C24.5228 4.0513 24.2627 3.99951 24 3.99951C23.7373 3.99951 23.4772 4.0513 23.2346 4.15193C22.992 4.25255 22.7716 4.40002 22.586 4.58591L21.172 5.99991H12C11.6548 5.99939 11.3153 6.08851 11.0149 6.25854C10.7144 6.42857 10.4633 6.67369 10.286 6.96991L4.286 16.9699C4.10047 17.2814 4.00301 17.6374 4.004 17.9999H4V37.9999C4 38.5303 4.21071 39.0391 4.58579 39.4141C4.96086 39.7892 5.46957 39.9999 6 39.9999H42C42.5304 39.9999 43.0391 39.7892 43.4142 39.4141C43.7893 39.0391 44 38.5303 44 37.9999V17.9999H43.996C43.996 17.6439 43.904 17.2879 43.714 16.9699ZM40 35.9999H28V27.9999H20V35.9999H8V19.9999H12.828L13.414 19.4139L17.414 15.4139L24 8.82791L32.586 17.4139L34.586 19.4139L35.172 19.9999H40V35.9999Z" fill="#FFD671"/>
<path d="M23.7901 24.0001C26.1152 24.0001 28.0001 22.1152 28.0001 19.7901C28.0001 17.465 26.1152 15.5801 23.7901 15.5801C21.465 15.5801 19.5801 17.465 19.5801 19.7901C19.5801 22.1152 21.465 24.0001 23.7901 24.0001Z" fill="#FFD671"/>
<path d="M12 24H16V30H12V24ZM32 24H36V30H32V24Z" fill="#FFD671"/>
</svg>
