<svg width="71" height="55" viewBox="0 0 71 55" fill="none" xmlns="http://www.w3.org/2000/svg">
<path d="M60.1 4.8978C55.5747 2.8214 50.722 1.2916 45.6482 0.415419C45.5558 0.398509 45.4635 0.440769 45.4159 0.525289C44.7918 1.6353 44.1005 3.0834 43.6164 4.2216C38.1592 3.4046 32.73 3.4046 27.3847 4.2216C26.9005 3.0581 26.1841 1.6353 25.5572 0.525289C25.5096 0.443589 25.4173 0.401329 25.3249 0.415419C20.2539 1.2888 15.4012 2.8186 10.8731 4.8978C10.8339 4.9147 10.8003 4.9429 10.778 4.9795C1.57343 18.7309 -0.948078 32.1443 0.288891 45.3914C0.294488 45.4562 0.330869 45.5182 0.381244 45.5576C6.45414 50.0174 12.3368 52.7249 18.1102 54.5195C18.2026 54.5477 18.3005 54.5139 18.3593 54.4378C19.725 52.5728 20.9424 50.6063 21.9862 48.5383C22.0478 48.4172 21.989 48.2735 21.8631 48.2256C19.9321 47.4931 18.0934 46.6 16.3247 45.5858C16.1848 45.5041 16.1736 45.304 16.3023 45.2082C16.6745 44.9293 17.0468 44.6391 17.4022 44.3461C17.4665 44.2926 17.5561 44.2813 17.6317 44.3151C29.2513 49.6202 41.8309 49.6202 53.3134 44.3151C53.389 44.2785 53.4786 44.2898 53.5457 44.3433C53.9012 44.6363 54.2734 44.9293 54.6484 45.2082C54.7771 45.304 54.7687 45.5041 54.6288 45.5858C52.8601 46.6197 51.0214 47.4931 49.0876 48.2228C48.9617 48.2707 48.9057 48.4172 48.9673 48.5383C50.0335 50.6034 51.2509 52.5699 52.5914 54.435C52.6474 54.5139 52.7481 54.5477 52.8405 54.5195C58.6419 52.7249 64.5245 50.0174 70.5974 45.5576C70.6506 45.5182 70.6842 45.459 70.6898 45.3942C72.1702 30.0791 68.2102 16.7757 60.1923 4.9823C60.1727 4.9429 60.1392 4.9147 60.1 4.8978ZM23.7214 37.3253C20.2231 37.3253 17.3406 34.1136 17.3406 30.1693C17.3406 26.225 20.1672 23.0133 23.7214 23.0133C27.3035 23.0133 30.1581 26.2532 30.1021 30.1693C30.1021 34.1136 27.2755 37.3253 23.7214 37.3253ZM47.3133 37.3253C43.8151 37.3253 40.9326 34.1136 40.9326 30.1693C40.9326 26.225 43.7591 23.0133 47.3133 23.0133C50.8955 23.0133 53.75 26.2532 53.6941 30.1693C53.6941 34.1136 50.8955 37.3253 47.3133 37.3253Z" fill="white"/>
</svg>
