<svg width="48" height="48" viewBox="0 0 48 48" fill="none" xmlns="http://www.w3.org/2000/svg">
<path d="M14.1218 44.0001C17.1678 44.0001 19.8018 42.9141 21.9418 40.7741C24.1878 38.5281 25.3558 35.0661 25.0438 31.7861L42.1718 14.6581C43.341 13.4864 43.9973 11.8985 43.9966 10.2432C43.9958 8.58796 43.3381 7.00067 42.1678 5.83006C39.8118 3.47006 35.6998 3.47006 33.3438 5.83006L15.5758 23.5981C11.7498 23.9361 7.96177 26.6401 7.96177 31.4361C7.96177 32.0421 8.00377 32.6121 8.04577 33.1561C8.20577 35.2181 8.26378 35.9921 5.10378 37.5721C4.79293 37.7273 4.52791 37.9609 4.33481 38.2498C4.14172 38.5387 4.02722 38.8729 4.00259 39.2195C3.97796 39.5661 4.04406 39.9131 4.19437 40.2264C4.34468 40.5397 4.57401 40.8084 4.85978 41.0061C5.03978 41.1261 9.24577 44.0001 14.1218 44.0001C14.1191 44.0001 14.1191 44.0001 14.1218 44.0001ZM36.1718 8.65606C36.5985 8.24667 37.1672 8.01842 37.7586 8.01916C38.3499 8.01991 38.9181 8.2496 39.3438 8.66006C39.5518 8.86807 39.7168 9.11501 39.8294 9.3868C39.942 9.65858 39.9999 9.94988 39.9999 10.2441C39.9999 10.5382 39.942 10.8295 39.8294 11.1013C39.7168 11.3731 39.5518 11.6201 39.3438 11.8281L23.9998 27.1721L20.8278 24.0001L36.1718 8.65606ZM12.0358 32.8461C11.9998 32.3981 11.9618 31.9301 11.9618 31.4341C11.9618 28.3441 14.8518 27.5281 16.3818 27.5281C17.0938 27.5281 17.7798 27.6741 18.3098 27.9401C20.1998 28.8901 20.8298 30.5261 21.0238 31.7321C21.3778 33.9121 20.5898 36.4681 19.1118 37.9461C17.7298 39.3281 16.0978 40.0001 14.1218 40.0001C12.6218 40.0001 11.1618 39.6081 9.97178 39.1461C12.1358 37.2001 12.2138 35.1681 12.0358 32.8461Z" fill="#FFD671"/>
</svg>
